<svg width="120" height="120" viewBox="0 0 120 120" fill="none" xmlns="http://www.w3.org/2000/svg">
<g id="image">
<path id="Vector" d="M11.875 16.6875H108.125V100.906H11.875V16.6875ZM72.6892 48.6643L69.0234 43.5134L65.3576 48.6455L48.7583 71.8808L43.8142 66.3164L40.4492 62.5378L37.0842 66.3352L25.053 79.8703L23.9062 81.1486V82.8593V84.3632V88.875H28.418H41.9531H46.4648H52.4804H56.9922H91.582H96.0937V84.3632V82.8593V81.4118L95.2478 80.2275L72.6892 48.6455V48.6643ZM32.9297 46.7656C37.9114 46.7656 41.9531 42.7238 41.9531 37.7422C41.9531 32.7605 37.9114 28.7187 32.9297 28.7187C27.948 28.7187 23.9062 32.7605 23.9062 37.7422C23.9062 42.7238 27.948 46.7656 32.9297 46.7656Z" fill="#ADB5BD"/>
</g>
</svg>
