<svg width="49" height="30" viewBox="0 0 49 30" fill="none" xmlns="http://www.w3.org/2000/svg">
<g>
<path fill-rule="evenodd" clip-rule="evenodd" d="M41.8248 0H6.85241C6.52963 0.711459 6.20695 1.42301 5.88426 2.13459C4.23242 5.77716 2.5802 9.42056 0.912147 13.0567C0.853697 13.1847 0.785344 13.3395 0.711216 13.5074C0.488969 14.0108 0.214811 14.6318 0 15L0.912147 17.0505C2.34737 20.1867 3.77052 23.3266 5.20512 26.4918C5.73343 27.6574 6.26328 28.8265 6.79587 30H41.7947L42.9593 27.168C43.9669 24.9446 44.9787 22.7938 45.9926 20.6387C46.8676 18.7788 47.7442 16.9158 48.6207 15C47.1338 11.8014 45.4796 8.12111 43.904 4.61558C43.1869 3.02022 42.4862 1.46106 41.8248 0ZM24.498 10.7648H24.3345C23.6698 13.1073 22.9675 15.4452 22.2553 17.8164C21.5288 20.2348 20.7919 22.6878 20.074 25.2157H16.1454C14.3124 18.5344 12.4844 11.8673 10.6167 5.04408H14.4065C15.0471 7.60196 15.7549 10.3795 16.4584 13.1402C17.0771 15.5681 17.6925 17.9829 18.2558 20.2236C18.6216 18.9462 19.0158 17.565 19.4185 16.154C20.0793 13.8384 20.7631 11.4425 21.3819 9.29323H27.5249C28.2347 11.8548 28.9445 14.4241 29.7202 17.2318C29.9948 18.2258 30.2776 19.2496 30.5716 20.3136C31.9637 14.9288 33.2171 10.0834 34.5101 5.09613H38.3098C37.8574 6.6685 37.4069 8.23449 36.9575 9.79634C35.4731 14.9557 34.0017 20.0699 32.5186 25.2204H28.6792C28.0077 22.8099 27.2934 20.3837 26.5775 17.9522C25.8728 15.5583 25.1665 13.1592 24.498 10.7648Z" fill="black"/>
</g>
</svg>
