<svg width="24" height="24" viewBox="0 0 24 24" fill="none" xmlns="http://www.w3.org/2000/svg">
<g>
<path d="M18.3361 10.1681C18.3361 11.9705 17.751 13.6356 16.7654 14.9865L21.1086 19.3336L22 20.2211L20.2211 22L19.3336 21.1125L14.9865 16.7654C13.6356 17.755 11.9705 18.3361 10.1681 18.3361C5.656 18.3361 2 14.6801 2 10.1681C2 5.656 5.656 2 10.1681 2C14.6801 2 18.3361 5.656 18.3361 10.1681ZM10.1681 15.8229C13.29 15.8229 15.8229 13.29 15.8229 10.1681C15.8229 7.04614 13.29 4.51325 10.1681 4.51325C7.04614 4.51325 4.51325 7.04614 4.51325 10.1681C4.51325 13.29 7.04614 15.8229 10.1681 15.8229Z" fill="currentColor"/>
</g>
</svg>
