<svg width="70" height="50" viewBox="0 0 70 50" fill="none" xmlns="http://www.w3.org/2000/svg">
<g id="sign-left">
<path id="Shape" fill-rule="evenodd" clip-rule="evenodd" d="M42.0201 23.8584V49.5383L70 49.6771V25.8018H56.01C55.8772 23.8607 55.8772 21.9128 56.01 19.9717C56.1395 18.0626 56.7142 16.2093 57.6888 14.5581C58.6237 12.4119 60.4674 10.7858 62.7252 10.1162C64.8059 9.42171 66.9696 9.00168 69.1606 8.86693V0.677124C65.8779 0.781725 62.6062 1.10636 59.3676 1.6488C57.149 1.95369 54.9835 2.56093 52.9322 3.45333C50.6376 4.37625 48.5817 5.79948 46.9166 7.61763C45.5203 9.00918 44.3415 10.5999 43.4191 12.3372C42.7814 13.8073 42.3121 15.3439 42.0201 16.9179V20.3882C41.9564 21.5441 41.9564 22.7025 42.0201 23.8584ZM0.0501773 23.8584V49.5383H28.0301V25.8018H14.0401V20.9434C14.0625 19.2904 14.3457 17.6511 14.8795 16.0851C15.4149 14.6187 16.2755 13.2904 17.3977 12.1984C18.619 10.8997 20.1628 9.94226 21.8745 9.42217C23.0484 8.99912 24.2699 8.71944 25.5119 8.5893H27.7503V1.37117H17.9573C15.7431 1.76748 13.5833 2.4197 11.5219 3.31452C9.24193 4.33741 7.15893 5.74657 5.36636 7.47882C4.02856 8.85696 2.94008 10.4535 2.14867 12.1984C1.20313 13.6021 0.494349 15.1493 0.0501773 16.7791V20.3882C-0.0167258 21.544 -0.0167258 22.7026 0.0501773 23.8584Z" fill="#E9ECEF"/>
</g>
</svg>
