<svg width="70" height="49" viewBox="0 0 70 49" fill="none" xmlns="http://www.w3.org/2000/svg">
<g id="sign-right">
<path id="Shape" fill-rule="evenodd" clip-rule="evenodd" d="M27.9801 25.8187L27.9801 0.138809L0.000137329 0L0.000137329 23.8754L13.9901 23.8754C14.1229 25.8165 14.1229 27.7643 13.9901 29.7054C13.8606 31.6146 13.2859 33.4678 12.3113 35.119C11.3764 37.2653 9.53272 38.8914 7.27492 39.5609C5.19425 40.2554 3.03057 40.6754 0.839531 40.8102V49C4.12219 48.8954 7.39397 48.5708 10.6325 48.0283C12.8511 47.7234 15.0166 47.1162 17.0679 46.2238C19.3625 45.3009 21.4185 43.8776 23.0836 42.0595C24.4798 40.6679 25.6587 39.0772 26.5811 37.3399C27.2188 35.8698 27.688 34.3333 27.9801 32.7592V29.289C28.0438 28.1331 28.0438 26.9746 27.9801 25.8187ZM69.95 25.8187V0.138813L41.97 0.138813V23.8754H55.96V28.7337C55.9377 30.3867 55.6544 32.0261 55.1206 33.5921C54.5852 35.0584 53.7246 36.3867 52.6024 37.4788C51.3812 38.7775 49.8373 39.7349 48.1256 40.255C46.9517 40.678 45.7303 40.9577 44.4882 41.0878H42.2498V48.3059L52.0428 48.3059C54.257 47.9096 56.4169 47.2574 58.4782 46.3626C60.7582 45.3397 62.8412 43.9306 64.6338 42.1983C65.9716 40.8202 67.0601 39.2236 67.8515 37.4788C68.797 36.075 69.5058 34.5279 69.95 32.898V29.289C70.0169 28.1332 70.0169 26.9745 69.95 25.8187Z" fill="#E9ECEF"/>
</g>
</svg>
