<svg width="699" height="358" viewBox="0 0 699 358" fill="none" xmlns="http://www.w3.org/2000/svg">
<g id="illustration-404">
<path id="Path" d="M299.68 235.817C241.677 203.479 238.199 202.392 180.224 170.04L295.236 103.734C353.111 136.243 356.405 137.502 414.266 170.011C376.071 191.961 337.875 213.896 299.68 235.817Z" fill="#F9F9F9"/>
<path id="Path_2" d="M299.687 235.552L180.224 168.617V181.897L211.066 199.311L299.687 249.005L414.266 182.803V169.437L299.687 235.552Z" fill="#EDEFF1"/>
<path id="Path_3" d="M299.804 235.666L299.562 235.537V248.861L299.804 249.005L414.266 183.071V169.775L299.804 235.666Z" fill="#CFD8DB"/>
<path id="Shape" d="M298.236 127.288L239.95 93.6462L300.523 58.6777L340.103 81.5251L320.108 93.7795L337.956 104.361L298.236 127.288Z" fill="#F7F7F7"/>
<path id="Shape_2" d="M318.76 93.8575L340.016 81.7296V109.497L337.921 111.068V104.258L318.76 93.8575Z" fill="url(#paint0_linear_1813_41416)"/>
<path id="Shape_3" d="M239.95 93.6462V166.442L298.236 200.083V127.288L239.95 93.6462Z" fill="#E6E9ED"/>
<path id="Shape_4" d="M248.856 128.881C248.567 128.881 248.332 128.592 248.332 128.234V113.811C248.332 113.454 248.567 113.164 248.856 113.164C249.146 113.164 249.38 113.454 249.38 113.811V128.234C249.38 128.592 249.146 128.881 248.856 128.881Z" fill="url(#paint1_linear_1813_41416)"/>
<path id="Shape_5" d="M254.095 133.073C253.806 133.073 253.572 132.783 253.572 132.425V118.003C253.572 117.645 253.806 117.355 254.095 117.355C254.385 117.355 254.619 117.645 254.619 118.003V132.425C254.619 132.783 254.385 133.073 254.095 133.073Z" fill="url(#paint2_linear_1813_41416)"/>
<path id="Shape_6" d="M259.334 137.264C259.045 137.264 258.811 136.974 258.811 136.616V122.195C258.811 121.837 259.045 121.547 259.334 121.547C259.624 121.547 259.858 121.837 259.858 122.195V136.616C259.858 136.974 259.624 137.264 259.334 137.264Z" fill="url(#paint3_linear_1813_41416)"/>
<path id="Shape_7" d="M277.147 174.985C276.858 174.985 276.623 174.695 276.623 174.338V159.916C276.623 159.558 276.858 159.268 277.147 159.268C277.437 159.268 277.671 159.558 277.671 159.916V174.338C277.671 174.695 277.437 174.985 277.147 174.985Z" fill="url(#paint4_linear_1813_41416)"/>
<path id="Shape_8" d="M282.386 179.177C282.097 179.177 281.863 178.887 281.863 178.53V164.106C281.863 163.749 282.097 163.459 282.386 163.459C282.676 163.459 282.91 163.749 282.91 164.106V178.53C282.91 178.887 282.676 179.177 282.386 179.177Z" fill="url(#paint5_linear_1813_41416)"/>
<path id="Shape_9" d="M287.626 183.368C287.336 183.368 287.102 183.078 287.102 182.72V168.298C287.102 167.94 287.336 167.651 287.626 167.651C287.915 167.651 288.149 167.94 288.149 168.298V182.72C288.149 183.078 287.915 183.368 287.626 183.368Z" fill="url(#paint6_linear_1813_41416)"/>
<path id="Shape_10" opacity="0.6" d="M276.623 149.748V149.929C276.623 150.27 276.821 150.587 277.144 150.76C277.469 150.929 277.868 150.927 278.192 150.756C278.516 150.585 278.716 150.27 278.719 149.929V149.748C278.716 149.405 278.516 149.089 278.192 148.916C277.868 148.747 277.469 148.748 277.146 148.919C276.822 149.09 276.623 149.406 276.623 149.748Z" fill="url(#paint7_linear_1813_41416)"/>
<path id="Shape_11" opacity="0.6" d="M276.623 144.506V144.686C276.622 145.028 276.82 145.345 277.144 145.517C277.469 145.689 277.87 145.69 278.195 145.518C278.521 145.347 278.72 145.029 278.719 144.686V144.506C278.718 144.165 278.517 143.85 278.192 143.682C277.869 143.509 277.47 143.507 277.145 143.678C276.821 143.848 276.622 144.164 276.623 144.506Z" fill="url(#paint8_linear_1813_41416)"/>
<path id="Shape_12" opacity="0.6" d="M276.623 139.267V139.447C276.622 139.789 276.82 140.105 277.144 140.277C277.469 140.45 277.87 140.451 278.195 140.279C278.521 140.108 278.72 139.79 278.719 139.447V139.267C278.718 138.926 278.517 138.611 278.192 138.443C277.869 138.27 277.47 138.268 277.145 138.438C276.821 138.609 276.622 138.925 276.623 139.267Z" fill="url(#paint9_linear_1813_41416)"/>
<g id="Group 8 Copy 3">
<path id="Shape_13" d="M371.717 126.914L367.847 133.617L371.503 139.858L375.373 133.156L371.717 126.914Z" fill="#EDEFF1"/>
<path id="Shape_14" d="M375.325 133.238L382.606 133.201L378.783 139.822L371.503 139.858L375.325 133.238Z" fill="url(#paint10_linear_1813_41416)"/>
<path id="Shape_15" d="M375.171 133.264L371.681 126.976L379.152 126.851L382.642 133.138L375.171 133.264Z" fill="#F7F7F7" stroke="white" stroke-width="0.594" stroke-linecap="round" stroke-linejoin="round"/>
</g>
<path id="Shape_16" d="M298.236 127.288L337.921 104.258L338.445 132.549L358.81 119.451V165.119L298.236 200.083V127.288Z" fill="url(#paint11_linear_1813_41416)"/>
<path id="Path 4" fill-rule="evenodd" clip-rule="evenodd" d="M338.445 133.073L358.877 119.451L340.016 108.973L337.921 110.021L338.445 133.073Z" fill="url(#paint12_linear_1813_41416)"/>
<g id="Group 8">
<path id="Shape_17" d="M371.13 154.401L368.89 167.104L378.174 174.794L380.413 162.092L371.13 154.401Z" fill="#EDEFF1"/>
<path id="Shape_18" d="M380.386 162.247L391.768 158.04L389.555 170.588L378.174 174.794L380.386 162.247Z" fill="url(#paint13_linear_1813_41416)"/>
<path id="Shape_19" d="M380.159 162.377L371.109 154.519L382.739 150.064L391.789 157.92L380.159 162.377Z" fill="#F7F7F7" stroke="white" stroke-width="0.594" stroke-linecap="round" stroke-linejoin="round"/>
</g>
<g id="Group 8 Copy">
<path id="Shape_20" d="M414.243 169.541L420.693 180.712L432.748 180.635L426.299 169.466L414.243 169.541Z" fill="#EDEFF1"/>
<path id="Shape_21" d="M426.378 169.602L432.392 159.063L438.763 170.097L432.748 180.635L426.378 169.602Z" fill="url(#paint14_linear_1813_41416)"/>
<path id="Shape_22" d="M426.287 169.847L414.303 169.644L420.349 158.756L432.331 158.958L426.287 169.847Z" fill="#F7F7F7" stroke="white" stroke-width="0.594" stroke-linecap="round" stroke-linejoin="round"/>
</g>
<g id="Group 8 Copy 2">
<path id="Shape_23" d="M442.178 181.901V189.64L448.465 193.217V185.479L442.178 181.901Z" fill="#EDEFF1"/>
<path id="Shape_24" d="M448.465 185.573L454.752 181.901V189.546L448.465 193.217V185.573Z" fill="url(#paint15_linear_1813_41416)"/>
<path id="Shape_25" d="M448.345 185.673L442.178 181.973L448.586 178.129L454.752 181.828L448.345 185.673Z" fill="#F7F7F7" stroke="white" stroke-width="0.594" stroke-linecap="round" stroke-linejoin="round"/>
</g>
<g id="Group 12">
<g id="Asset 1">
<path id="Path_4" d="M101.173 223.142L193.548 276.26L132.385 311.432L40.0099 258.313L0 281.322L92.3752 334.441L94.9294 335.913L132.134 357.305L233.307 299.125L318.343 348.029L358.353 325.02L273.317 276.116L233.558 253.251L141.183 200.133L101.173 223.142Z" fill="#F9F9F9"/>
</g>
<path id="Path_5" d="M101.114 223.185L113.164 229.996L140.931 245.713L140.899 200.133L101.114 223.185Z" fill="#CFD8DB"/>
<path id="Path Copy 2" d="M0 281.604L12.0499 288.493L39.817 304.391L39.7847 258.287L0 281.604Z" fill="#CFD8DB"/>
<path id="Path 6" fill-rule="evenodd" clip-rule="evenodd" d="M132.549 311.201L193.322 276.1V321.68L132.549 357.305V311.201Z" fill="#EDEFF1"/>
</g>
<g id="Group 12 Copy">
<g id="Asset 1_2">
<path id="Path_6" d="M451.288 22.0888L539.968 73.0824L481.252 106.847L392.571 55.8531L354.162 77.9419L442.842 128.936L445.294 130.349L481.011 150.886L578.137 95.0324L659.771 141.981L698.181 119.892L616.546 72.9436L578.378 50.9936L489.698 0L451.288 22.0888Z" fill="#F9F9F9"/>
</g>
<path id="Path_7" d="M451.232 22.1299L462.799 28.6682L489.456 43.7568L489.425 0L451.232 22.1299Z" fill="#CFD8DB"/>
<path id="Path Copy 2_2" d="M354.162 78.2119L365.73 84.8254L392.386 100.087L392.355 55.8276L354.162 78.2119Z" fill="#CFD8DB"/>
<path id="Path 6_2" fill-rule="evenodd" clip-rule="evenodd" d="M481.409 106.626L539.751 72.928V116.685L481.409 150.886V106.626Z" fill="#EDEFF1"/>
</g>
</g>
<defs>
<linearGradient id="paint0_linear_1813_41416" x1="340.016" y1="111.068" x2="340.016" y2="81.7296" gradientUnits="userSpaceOnUse">
<stop stop-color="#B1C1C6"/>
<stop offset="1" stop-color="#E3EBED"/>
</linearGradient>
<linearGradient id="paint1_linear_1813_41416" x1="248.332" y1="128.881" x2="249.38" y2="128.881" gradientUnits="userSpaceOnUse">
<stop stop-color="#CFD8DB"/>
<stop offset="1" stop-color="#CFD8DB"/>
</linearGradient>
<linearGradient id="paint2_linear_1813_41416" x1="253.572" y1="133.069" x2="254.619" y2="133.069" gradientUnits="userSpaceOnUse">
<stop stop-color="#CFD8DB"/>
<stop offset="1" stop-color="#CFD8DB"/>
</linearGradient>
<linearGradient id="paint3_linear_1813_41416" x1="258.811" y1="137.257" x2="259.858" y2="137.257" gradientUnits="userSpaceOnUse">
<stop stop-color="#CFD8DB"/>
<stop offset="1" stop-color="#CFD8DB"/>
</linearGradient>
<linearGradient id="paint4_linear_1813_41416" x1="276.608" y1="174.989" x2="277.656" y2="174.989" gradientUnits="userSpaceOnUse">
<stop stop-color="#CFD8DB"/>
<stop offset="1" stop-color="#CFD8DB"/>
</linearGradient>
<linearGradient id="paint5_linear_1813_41416" x1="281.863" y1="179.164" x2="282.91" y2="179.164" gradientUnits="userSpaceOnUse">
<stop stop-color="#CFD8DB"/>
<stop offset="1" stop-color="#CFD8DB"/>
</linearGradient>
<linearGradient id="paint6_linear_1813_41416" x1="287.102" y1="183.368" x2="288.149" y2="183.368" gradientUnits="userSpaceOnUse">
<stop stop-color="#CFD8DB"/>
<stop offset="1" stop-color="#CFD8DB"/>
</linearGradient>
<linearGradient id="paint7_linear_1813_41416" x1="276.623" y1="150.886" x2="278.719" y2="150.886" gradientUnits="userSpaceOnUse">
<stop stop-color="#CFD8DB"/>
<stop offset="1" stop-color="#CFD8DB"/>
</linearGradient>
<linearGradient id="paint8_linear_1813_41416" x1="276.623" y1="145.644" x2="278.719" y2="145.644" gradientUnits="userSpaceOnUse">
<stop stop-color="#CFD8DB"/>
<stop offset="1" stop-color="#CFD8DB"/>
</linearGradient>
<linearGradient id="paint9_linear_1813_41416" x1="276.623" y1="140.405" x2="278.719" y2="140.405" gradientUnits="userSpaceOnUse">
<stop stop-color="#CFD8DB"/>
<stop offset="1" stop-color="#CFD8DB"/>
</linearGradient>
<linearGradient id="paint10_linear_1813_41416" x1="359.148" y1="145.144" x2="376.29" y2="156.386" gradientUnits="userSpaceOnUse">
<stop stop-color="#CFD8DB"/>
<stop offset="1" stop-color="#CFD8DB"/>
</linearGradient>
<linearGradient id="paint11_linear_1813_41416" x1="298.236" y1="200.085" x2="358.81" y2="200.085" gradientUnits="userSpaceOnUse">
<stop stop-color="#CFD8DB"/>
<stop offset="1" stop-color="#CFD8DB"/>
</linearGradient>
<linearGradient id="paint12_linear_1813_41416" x1="358.693" y1="110.337" x2="344.763" y2="105.988" gradientUnits="userSpaceOnUse">
<stop stop-color="#F7F7F7"/>
<stop offset="1" stop-color="#EAEDF0"/>
</linearGradient>
<linearGradient id="paint13_linear_1813_41416" x1="361.836" y1="190.116" x2="395.092" y2="197.951" gradientUnits="userSpaceOnUse">
<stop stop-color="#CFD8DB"/>
<stop offset="1" stop-color="#CFD8DB"/>
</linearGradient>
<linearGradient id="paint14_linear_1813_41416" x1="430.081" y1="202.874" x2="460.593" y2="187.5" gradientUnits="userSpaceOnUse">
<stop stop-color="#CFD8DB"/>
<stop offset="1" stop-color="#CFD8DB"/>
</linearGradient>
<linearGradient id="paint15_linear_1813_41416" x1="440.408" y1="203.973" x2="460.875" y2="205.138" gradientUnits="userSpaceOnUse">
<stop stop-color="#CFD8DB"/>
<stop offset="1" stop-color="#CFD8DB"/>
</linearGradient>
</defs>
</svg>
