<svg width="24" height="24" viewBox="0 0 24 24" fill="none" xmlns="http://www.w3.org/2000/svg">
<g id="github">
<path id="Vector" d="M8.54203 17.3554C8.54203 17.4343 8.45134 17.4974 8.33698 17.4974C8.20685 17.5092 8.11615 17.4461 8.11615 17.3554C8.11615 17.2766 8.20685 17.2135 8.32121 17.2135C8.43951 17.2017 8.54203 17.2647 8.54203 17.3554ZM7.31565 17.178C7.28805 17.2569 7.36691 17.3476 7.48521 17.3712C7.58774 17.4106 7.70604 17.3712 7.7297 17.2923C7.75336 17.2135 7.67844 17.1228 7.56014 17.0873C7.45761 17.0597 7.34325 17.0991 7.31565 17.178ZM9.05861 17.111C8.94426 17.1386 8.86539 17.2135 8.87722 17.3042C8.88905 17.383 8.99158 17.4343 9.10988 17.4067C9.22423 17.3791 9.3031 17.3042 9.29127 17.2253C9.27944 17.1504 9.17297 17.0991 9.05861 17.111ZM11.6533 2C6.1839 2 2 6.15236 2 11.6218C2 15.995 4.75247 19.7372 8.68399 21.0543C9.18874 21.145 9.3662 20.8335 9.3662 20.5772C9.3662 20.3327 9.35437 18.984 9.35437 18.1559C9.35437 18.1559 6.59401 18.7474 6.01434 16.9808C6.01434 16.9808 5.5648 15.8333 4.91809 15.5376C4.91809 15.5376 4.01506 14.9184 4.98118 14.9303C4.98118 14.9303 5.96308 15.0091 6.50332 15.9477C7.36691 17.4698 8.81413 17.0321 9.37803 16.7718C9.46872 16.1409 9.72504 15.7032 10.009 15.4429C7.80463 15.1984 5.58057 14.879 5.58057 11.0855C5.58057 10.0011 5.88027 9.45689 6.5112 8.76286C6.40868 8.50654 6.07349 7.44972 6.61373 6.08532C7.43789 5.829 9.33465 7.15003 9.33465 7.15003C10.1233 6.9292 10.9711 6.81484 11.8111 6.81484C12.651 6.81484 13.4988 6.9292 14.2875 7.15003C14.2875 7.15003 16.1843 5.82506 17.0084 6.08532C17.5487 7.45367 17.2135 8.50654 17.111 8.76286C17.7419 9.46084 18.1283 10.005 18.1283 11.0855C18.1283 14.8908 15.8057 15.1945 13.6014 15.4429C13.9642 15.7544 14.2717 16.3459 14.2717 17.2726C14.2717 18.6015 14.2599 20.2459 14.2599 20.5693C14.2599 20.8256 14.4413 21.1371 14.9421 21.0464C18.8855 19.7372 21.5591 15.995 21.5591 11.6218C21.5591 6.15236 17.1228 2 11.6533 2ZM5.83295 15.6006C5.78168 15.6401 5.79351 15.7308 5.86055 15.8057C5.92364 15.8688 6.01434 15.8964 6.0656 15.8451C6.11687 15.8057 6.10504 15.715 6.038 15.6401C5.97491 15.577 5.88421 15.5494 5.83295 15.6006ZM5.40706 15.2812C5.37946 15.3325 5.41889 15.3956 5.49776 15.435C5.56085 15.4745 5.63972 15.4626 5.66732 15.4074C5.69493 15.3562 5.65549 15.2931 5.57663 15.2536C5.49776 15.23 5.43467 15.2418 5.40706 15.2812ZM6.68471 16.6851C6.62162 16.7363 6.64528 16.8546 6.73597 16.9296C6.82667 17.0203 6.94103 17.0321 6.99229 16.969C7.04356 16.9177 7.0199 16.7994 6.94103 16.7245C6.85428 16.6338 6.73597 16.622 6.68471 16.6851ZM6.23517 16.1054C6.17207 16.1448 6.17207 16.2474 6.23517 16.3381C6.29826 16.4288 6.40473 16.4682 6.456 16.4288C6.51909 16.3775 6.51909 16.275 6.456 16.1843C6.40079 16.0936 6.29826 16.0541 6.23517 16.1054Z" fill="currentColor"/>
</g>
</svg>
