<svg width="20" height="21" viewBox="0 0 20 21" fill="none" xmlns="http://www.w3.org/2000/svg">
<g>
<path id="Vector" d="M5.58214 18.6458H2.26429V7.96361H5.58214V18.6458ZM3.92143 6.50647C2.86071 6.50647 2 5.62789 2 4.56718C2 4.05759 2.20244 3.56886 2.56277 3.20853C2.92311 2.84819 3.41183 2.64575 3.92143 2.64575C4.43102 2.64575 4.91975 2.84819 5.28008 3.20853C5.64042 3.56886 5.84286 4.05759 5.84286 4.56718C5.84286 5.62789 4.98214 6.50647 3.92143 6.50647ZM17.9964 18.6458H14.6857V13.4458C14.6857 12.2065 14.6607 10.6172 12.9607 10.6172C11.2357 10.6172 10.9714 11.9636 10.9714 13.3565V18.6458H7.65714V7.96361H10.8393V9.42075H10.8857C11.3286 8.58147 12.4107 7.69575 14.025 7.69575C17.3821 7.69575 18 9.90647 18 12.7779V18.6458H17.9964Z" fill="currentColor"/>
</g>
</svg>
