<svg width="24" height="24" viewBox="0 0 24 24" fill="none" xmlns="http://www.w3.org/2000/svg">
<g id="Size=24">
<path id="Vector" d="M3.51274 4.45955L2.91889 4L2 5.18484L2.59384 5.64439L20.4873 19.5404L21.0811 20L22 18.8152L21.4062 18.3556L18.3776 16.0047C19.6871 14.6292 20.5717 13.0692 21.003 12C20.0653 9.66471 16.9523 4.99726 12.0016 4.99726C9.91061 4.99726 8.15096 5.82884 6.74137 6.96678L3.51274 4.45955ZM8.95421 8.68621C9.75434 7.94842 10.8264 7.49824 12.0016 7.49824C14.4863 7.49824 16.5023 9.51465 16.5023 12C16.5023 12.7722 16.3085 13.4975 15.9678 14.1321L14.7582 13.1911C14.9176 12.8253 15.0052 12.422 15.0052 12C15.0052 10.3431 13.6612 8.99883 12.0047 8.99883C11.8047 8.99883 11.6078 9.01758 11.4171 9.0551L11.7797 10.8746L8.95421 8.68621ZM13.6581 16.186C13.1455 16.3892 12.586 16.5018 12.0016 16.5018C9.5168 16.5018 7.50086 14.4853 7.50086 12C7.50086 11.7843 7.51649 11.5748 7.54462 11.3685L4.67854 9.10825C3.88154 10.1587 3.31583 11.2122 3.00016 12C3.9378 14.3353 7.05079 19.0027 12.0016 19.0027C13.4674 19.0027 14.7707 18.5932 15.9053 17.9586L13.6581 16.186ZM12.0016 15.0012C12.0516 15.0012 12.1016 15.0012 12.1516 14.998L9.05423 12.5565C9.31364 13.9476 10.5357 15.0012 12.0016 15.0012Z" fill="currentColor"/>
</g>
</svg>
