<svg width="24" height="24" viewBox="0 0 24 24" fill="none" xmlns="http://www.w3.org/2000/svg">
<g id="Size=24">
<path id="Vector" d="M12 5C7.05 5 3.9375 9.66563 3 12C3.9375 14.3344 7.05 19 12 19C16.95 19 20.0625 14.3344 21 12C20.0625 9.66563 16.95 5 12 5ZM16.5 12C16.5 14.4844 14.4844 16.5 12 16.5C9.51562 16.5 7.5 14.4844 7.5 12C7.5 9.51562 9.51562 7.5 12 7.5C14.4844 7.5 16.5 9.51562 16.5 12ZM9 12C9 13.6562 10.3438 15 12 15C13.6562 15 15 13.6562 15 12C15 10.3438 13.6562 9 12 9C11.8 9 11.6031 9.01875 11.4125 9.05625L12 12L9.05625 11.4125C9.01875 11.6031 9 11.8 9 12Z" fill="currentColor"/>
</g>
</svg>
