<svg width="112" height="38" viewBox="0 0 112 38" fill="none" xmlns="http://www.w3.org/2000/svg">
<g id="logo">
<g id="WEB">
<g id="Group">
<path id="Shape" fill-rule="evenodd" clip-rule="evenodd" d="M6.41272 0.5H104.918C105.535 1.80057 106.19 3.18829 106.86 4.60827L106.863 4.61589L106.863 4.61618C108.338 7.74256 109.886 11.0248 111.277 13.8775C110.457 15.5859 109.637 17.2474 108.818 18.9061L108.818 18.9062L108.818 18.9063L108.817 18.9073L108.817 18.9075C107.869 20.829 106.922 22.7467 105.979 24.7293L104.889 27.2549H6.35981C5.86201 26.2096 5.36676 25.1683 4.87296 24.1301L4.87132 24.1266L4.87103 24.126C3.52851 21.3032 2.19672 18.503 0.853619 15.7061L0 13.8775C0.201024 13.5491 0.457583 12.9953 0.665567 12.5464L0.665573 12.5464L0.665579 12.5463L0.665602 12.5463C0.734966 12.3966 0.798925 12.2585 0.853619 12.1444C2.41463 8.90156 3.96083 5.65228 5.50668 2.40374L6.41272 0.5ZM26.4742 15.6993L26.4742 15.6991C26.9837 14.1472 27.486 12.6169 27.9613 11.0835H28.0777C28.5537 12.644 29.0566 14.2075 29.5584 15.7676L29.5585 15.7679L29.5586 15.7682C30.0682 17.3527 30.5767 18.9337 31.0548 20.5045H33.7885C34.8432 17.1519 35.8897 13.8228 36.9453 10.4644L37.912 7.38918H35.2065C34.2859 10.6395 33.3934 13.7973 32.4022 17.3066L31.7954 15.2961L31.7929 15.2879C31.2418 13.4621 30.7374 11.7908 30.2329 10.1245H25.859C25.4185 11.5252 24.9316 13.0866 24.4611 14.5957C24.1744 15.5153 23.8937 16.4155 23.6332 17.248C23.2326 15.7892 22.7949 14.2171 22.3548 12.6364L22.3547 12.6361L22.3536 12.6321L22.3534 12.6313L22.3533 12.6312C21.8525 10.8322 21.3485 9.02216 20.8925 7.35525H18.1941C19.5239 11.8021 20.8255 16.1471 22.1306 20.5014H24.9278V20.4983C25.4367 18.8597 25.959 17.2687 26.474 15.6997L26.4742 15.6993ZM90.9951 9.36588C91.6088 10.7998 91.182 12.4774 89.316 13.3748C90.5471 13.8281 91.2808 14.5065 91.6512 15.4934C92.4095 17.5472 91.0938 19.6102 89.055 20.1992C88.4483 20.375 87.8028 20.5384 87.1749 20.5477C85.3144 20.5795 83.2945 20.5745 81.3632 20.5696H81.363H81.3629L81.3611 20.5696C80.6751 20.5679 80.0003 20.5662 79.3478 20.5662L79.383 7.30283L80.5329 7.28433C82.0726 7.27507 83.6123 7.27623 85.152 7.27739C85.6652 7.27777 86.1785 7.27816 86.6917 7.27816C86.7319 7.27816 86.7718 7.27746 86.8114 7.27677C86.8897 7.27541 86.9671 7.27406 87.0444 7.27816C88.7658 7.39534 90.3143 7.78082 90.9951 9.36588ZM52.8997 14.596H60.7198V12.8197H55.6581V9.08217H63.6511V7.37992H52.8997V14.596ZM63.8451 18.8084V20.4891C62.0602 20.4891 60.2659 20.4861 58.4523 20.483C56.5992 20.4799 54.726 20.4768 52.8221 20.4768L52.8256 18.8084H63.8451Z" fill="black"/>
<path id="Shape_2" d="M82.0674 9.1531C83.5383 9.1531 84.8822 9.1346 86.2226 9.15927C87.7041 9.18702 88.3249 9.60642 88.4977 10.6271C88.6917 11.7867 88.1979 12.5823 86.6988 12.8105C86.4519 12.8475 86.0074 12.8876 85.6159 12.8937V14.3369C86.0074 14.3493 86.5365 14.3647 86.8646 14.4017C88.5118 14.5929 89.2914 15.407 89.1503 16.7824C89.0409 17.8864 88.3002 18.6203 87.0268 18.6727C85.4042 18.7406 83.7711 18.6912 82.0674 18.6912C82.0674 15.4872 82.0674 12.4281 82.0674 9.1531Z" fill="black"/>
</g>
</g>
<g id="DEVELOP">
<path id="Shape_3" fill-rule="evenodd" clip-rule="evenodd" d="M10.2103 31.7416V37.4543H12.2653C12.7114 37.4543 13.1119 37.386 13.4772 37.2493C13.8391 37.1127 14.1447 36.9175 14.4011 36.6703C14.654 36.4198 14.8508 36.1205 14.9878 35.7691C15.1248 35.4178 15.1915 35.0241 15.1915 34.5914C15.1915 34.1978 15.1283 33.8269 15.0088 33.4821C14.8894 33.1373 14.7032 32.8347 14.4608 32.5777C14.2184 32.3207 13.9128 32.1157 13.544 31.9661C13.1751 31.8164 12.7501 31.7416 12.2618 31.7416H10.2103ZM14.5838 33.5994C14.6927 33.9019 14.7489 34.2338 14.7489 34.5949C14.7489 34.9495 14.6962 35.278 14.5873 35.5773C14.4784 35.8831 14.3238 36.1467 14.1131 36.3711C13.9058 36.5956 13.6494 36.7713 13.3367 36.8981C13.0241 37.025 12.6658 37.0901 12.2618 37.0901H10.6529V32.1127H12.2618C12.6623 32.1127 13.0171 32.1745 13.3227 32.3013C13.6283 32.4217 13.8882 32.5941 14.099 32.8154C14.3133 33.0333 14.4714 33.2968 14.5838 33.5994Z" fill="black"/>
<path id="Shape_4" d="M29.2219 37.0901V37.4577H25.1083V31.7385H29.1411V32.1094H25.551V34.3541H28.6879V34.7087H25.551V37.0803L29.2219 37.0901Z" fill="black"/>
<path id="Shape_5" d="M38.9139 31.7418L41.2605 36.9469L43.6071 31.7418H44.0743L41.4678 37.461H41.0568L38.4397 31.7418H38.9139Z" fill="black"/>
<path id="Shape_6" d="M57.8377 37.0901V37.4577H53.7242V31.7385H57.7569V32.1094H54.1668V34.3541H57.3038V34.7087H54.1668V37.0803L57.8377 37.0901Z" fill="black"/>
<path id="Shape_7" d="M67.737 37.461V31.7418H68.1831V37.0901H71.8681V37.461H67.737Z" fill="black"/>
<path id="Shape_8" fill-rule="evenodd" clip-rule="evenodd" d="M82.7721 37.2495C83.1304 37.4187 83.5203 37.5 83.9489 37.5C84.3599 37.5 84.7393 37.4219 85.0976 37.2625C85.4489 37.1064 85.7545 36.8949 86.0109 36.6281C86.2709 36.3614 86.4711 36.0556 86.6222 35.7075C86.7662 35.3561 86.84 34.9885 86.84 34.6014C86.84 34.2468 86.7697 33.8954 86.6327 33.5506C86.4922 33.2057 86.2955 32.8934 86.0461 32.6202C85.7896 32.3469 85.4875 32.1257 85.1292 31.9598C84.7709 31.7873 84.381 31.706 83.9524 31.706C83.5414 31.706 83.162 31.7808 82.8072 31.9402C82.4524 32.0996 82.1433 32.3111 81.8903 32.5811C81.6304 32.8479 81.4266 33.1602 81.2791 33.5083C81.1351 33.8564 81.0613 34.2208 81.0613 34.6014C81.0613 34.9657 81.1316 35.3268 81.2686 35.6717C81.4056 36.023 81.6058 36.3288 81.8587 36.5989C82.1152 36.8689 82.4208 37.0836 82.7721 37.2495ZM81.6796 35.5481C81.5637 35.2455 81.5004 34.9332 81.5004 34.6046C81.5004 34.2891 81.5637 33.9833 81.6796 33.6872C81.799 33.3847 81.9606 33.1147 82.1749 32.8772C82.3892 32.6397 82.6491 32.4445 82.9512 32.3013C83.2533 32.155 83.5906 32.0866 83.9594 32.0866C84.3107 32.0866 84.6374 32.1517 84.9325 32.2916C85.2276 32.4282 85.4805 32.6202 85.7018 32.8511C85.9231 33.0821 86.0917 33.3521 86.2112 33.6547C86.3341 33.9605 86.3974 34.2728 86.3974 34.6014C86.3974 34.9104 86.3341 35.2162 86.2182 35.522C86.1023 35.8213 85.9442 36.0914 85.7299 36.3288C85.5156 36.5696 85.2592 36.7615 84.9606 36.9079C84.6655 37.0478 84.3283 37.1226 83.9594 37.1226C83.6011 37.1226 83.2674 37.0543 82.9653 36.9144C82.6632 36.7745 82.4103 36.5891 82.1889 36.3549C81.9676 36.1206 81.799 35.8539 81.6796 35.5481Z" fill="black"/>
<path id="Shape_9" fill-rule="evenodd" clip-rule="evenodd" d="M96.7252 31.7418V37.461H97.1713V35.3008H99.3177C99.5776 35.3008 99.8165 35.2488 100.031 35.1544C100.245 35.0568 100.428 34.9202 100.582 34.7543C100.737 34.5884 100.856 34.3964 100.941 34.1817C101.025 33.9702 101.067 33.7458 101.067 33.5148C101.067 33.3001 101.018 33.0854 100.93 32.8739C100.842 32.6625 100.719 32.4738 100.561 32.3013C100.396 32.1354 100.206 31.9955 99.9886 31.8947C99.7708 31.7938 99.532 31.7418 99.2685 31.7418H96.7252ZM99.3001 34.9234H97.1713H97.1678V32.1094H99.2474C99.4301 32.1094 99.6092 32.1484 99.7743 32.22C99.9395 32.2981 100.083 32.3989 100.206 32.5323C100.329 32.6592 100.428 32.8056 100.502 32.978C100.575 33.1472 100.61 33.3229 100.61 33.5115C100.61 33.697 100.582 33.8694 100.519 34.0386C100.459 34.211 100.372 34.3606 100.256 34.4908C100.147 34.6241 100.01 34.7283 99.8446 34.8063C99.6865 34.8844 99.5039 34.9234 99.3001 34.9234Z" fill="black"/>
</g>
</g>
</svg>
